<svg xmlns="http://www.w3.org/2000/svg" width="720" height="216" viewBox="0 0 720 216" role="img" aria-labelledby="title desc">
  <title id="title">Layerhouse Grid Store lockup, light</title>
  <desc id="desc">Layerhouse wordmark with a slate house-shaped repository grid logo for light backgrounds.</desc>
  <defs>
    <linearGradient id="shell" x1="34" y1="26" x2="158" y2="172" gradientUnits="userSpaceOnUse">
      <stop stop-color="#27364c"/>
      <stop offset="1" stop-color="#111827"/>
    </linearGradient>
    <linearGradient id="roof" x1="24" y1="28" x2="172" y2="82" gradientUnits="userSpaceOnUse">
      <stop stop-color="#334155"/>
      <stop offset="1" stop-color="#172033"/>
    </linearGradient>
    <linearGradient id="accent" x1="120" y1="82" x2="158" y2="114" gradientUnits="userSpaceOnUse">
      <stop stop-color="#7dd3fc"/>
      <stop offset="1" stop-color="#0ea5e9"/>
    </linearGradient>
    <filter id="shadow" x="-16%" y="-16%" width="134%" height="146%">
      <feDropShadow dx="0" dy="12" stdDeviation="11" flood-color="#0f172a" flood-opacity=".16"/>
    </filter>
  </defs>
  <rect width="720" height="216" rx="18" fill="#ffffff" stroke="rgba(15,23,42,.10)"/>
  <g transform="translate(38 25)" filter="url(#shadow)">
    <path d="M24 65 96 25l72 40v118H24Z" fill="url(#shell)"/>
    <path d="M24 65 96 25l72 40v22L96 47 24 87Z" fill="url(#roof)"/>
    <path d="M96 25 168 65" fill="none" stroke="#465a76" stroke-width="4.5" stroke-linecap="round" opacity=".42"/>
    <path d="M24 65 96 25" fill="none" stroke="#64748b" stroke-width="4.5" stroke-linecap="round" opacity=".35"/>
    <rect x="46" y="91" width="34" height="28" rx="6" fill="#e2e8f0"/>
    <rect x="92" y="91" width="34" height="28" rx="6" fill="#94a3b8"/>
    <rect x="138" y="91" width="18" height="28" rx="6" fill="url(#accent)"/>
    <rect x="46" y="132" width="34" height="28" rx="6" fill="#64748b"/>
    <rect x="92" y="132" width="64" height="28" rx="6" fill="#cbd5e1"/>
    <path d="M46 175H156" stroke="#0f172a" stroke-width="8" stroke-linecap="round" opacity=".38"/>
    <circle cx="148" cy="99" r="4.2" fill="#ffffff" opacity=".78"/>
  </g>
  <g transform="translate(240 74)">
    <text x="0" y="48" fill="#172033" font-family="Inter, Satoshi, system-ui, -apple-system, BlinkMacSystemFont, Segoe UI, sans-serif" font-size="56" font-weight="830" letter-spacing="0">Layerhouse</text>
    <text x="3" y="82" fill="#64748b" font-family="Inter, Satoshi, system-ui, -apple-system, BlinkMacSystemFont, Segoe UI, sans-serif" font-size="17" font-weight="760" letter-spacing="0">OCI registry for layered storage</text>
  </g>
</svg>
