<svg xmlns="http://www.w3.org/2000/svg" width="720" height="216" viewBox="0 0 720 216" role="img" aria-labelledby="title desc">
  <title id="title">Layerhouse Grid Store lockup, dark</title>
  <desc id="desc">Layerhouse wordmark with a light house-shaped repository grid logo for dark backgrounds.</desc>
  <defs>
    <linearGradient id="panel" x1="0" y1="0" x2="720" y2="216" gradientUnits="userSpaceOnUse">
      <stop stop-color="#07111f"/>
      <stop offset="1" stop-color="#111827"/>
    </linearGradient>
    <linearGradient id="shell" x1="34" y1="26" x2="158" y2="172" gradientUnits="userSpaceOnUse">
      <stop stop-color="#f8fafc"/>
      <stop offset="1" stop-color="#cbd5e1"/>
    </linearGradient>
    <linearGradient id="roof" x1="24" y1="28" x2="172" y2="82" gradientUnits="userSpaceOnUse">
      <stop stop-color="#ffffff"/>
      <stop offset="1" stop-color="#dbe7f5"/>
    </linearGradient>
    <linearGradient id="accent" x1="120" y1="82" x2="158" y2="114" gradientUnits="userSpaceOnUse">
      <stop stop-color="#67e8f9"/>
      <stop offset="1" stop-color="#38bdf8"/>
    </linearGradient>
    <filter id="glow" x="-22%" y="-22%" width="146%" height="156%">
      <feDropShadow dx="0" dy="14" stdDeviation="12" flood-color="#020617" flood-opacity=".42"/>
      <feDropShadow dx="0" dy="0" stdDeviation="5" flood-color="#38bdf8" flood-opacity=".16"/>
    </filter>
  </defs>
  <rect width="720" height="216" rx="18" fill="url(#panel)" stroke="rgba(226,232,240,.12)"/>
  <g transform="translate(38 25)" filter="url(#glow)">
    <path d="M24 65 96 25l72 40v118H24Z" fill="url(#shell)"/>
    <path d="M24 65 96 25l72 40v22L96 47 24 87Z" fill="url(#roof)"/>
    <path d="M96 25 168 65" fill="none" stroke="#ffffff" stroke-width="4.5" stroke-linecap="round" opacity=".66"/>
    <path d="M24 65 96 25" fill="none" stroke="#ffffff" stroke-width="4.5" stroke-linecap="round" opacity=".48"/>
    <rect x="46" y="91" width="34" height="28" rx="6" fill="#1e293b"/>
    <rect x="92" y="91" width="34" height="28" rx="6" fill="#475569"/>
    <rect x="138" y="91" width="18" height="28" rx="6" fill="url(#accent)"/>
    <rect x="46" y="132" width="34" height="28" rx="6" fill="#64748b"/>
    <rect x="92" y="132" width="64" height="28" rx="6" fill="#334155"/>
    <path d="M46 175H156" stroke="#64748b" stroke-width="8" stroke-linecap="round" opacity=".42"/>
    <circle cx="148" cy="99" r="4.2" fill="#ecfeff" opacity=".88"/>
  </g>
  <g transform="translate(240 74)">
    <text x="0" y="48" fill="#f8fafc" font-family="Inter, Satoshi, system-ui, -apple-system, BlinkMacSystemFont, Segoe UI, sans-serif" font-size="56" font-weight="830" letter-spacing="0">Layerhouse</text>
    <text x="3" y="82" fill="#94a3b8" font-family="Inter, Satoshi, system-ui, -apple-system, BlinkMacSystemFont, Segoe UI, sans-serif" font-size="17" font-weight="760" letter-spacing="0">OCI registry for layered storage</text>
  </g>
</svg>
