<svg xmlns="http://www.w3.org/2000/svg" width="128" height="128" viewBox="0 0 128 128" role="img" aria-labelledby="title desc">
  <title id="title">Layerhouse Grid Store mark, light</title>
  <desc id="desc">A slate house-shaped repository grid with layered storage bays and a sky-blue active bay.</desc>
  <defs>
    <linearGradient id="shell" x1="22" y1="18" x2="106" y2="112" gradientUnits="userSpaceOnUse">
      <stop stop-color="#27364c"/>
      <stop offset="1" stop-color="#111827"/>
    </linearGradient>
    <linearGradient id="roof" x1="16" y1="18" x2="112" y2="54" gradientUnits="userSpaceOnUse">
      <stop stop-color="#334155"/>
      <stop offset="1" stop-color="#172033"/>
    </linearGradient>
    <linearGradient id="accent" x1="78" y1="50" x2="105" y2="73" gradientUnits="userSpaceOnUse">
      <stop stop-color="#7dd3fc"/>
      <stop offset="1" stop-color="#0ea5e9"/>
    </linearGradient>
    <filter id="shadow" x="-18%" y="-18%" width="136%" height="146%">
      <feDropShadow dx="0" dy="10" stdDeviation="9" flood-color="#0f172a" flood-opacity=".18"/>
    </filter>
  </defs>
  <rect width="128" height="128" rx="0" fill="transparent"/>
  <g filter="url(#shadow)">
    <path d="M18 48.5 64 23l46 25.5v75.5H18Z" fill="url(#shell)"/>
    <path d="M18 48.5 64 23l46 25.5v14L64 37 18 62.5Z" fill="url(#roof)"/>
    <path d="M64 23 110 48.5" fill="none" stroke="#465a76" stroke-width="3" stroke-linecap="round" opacity=".42"/>
    <path d="M18 48.5 64 23" fill="none" stroke="#64748b" stroke-width="3" stroke-linecap="round" opacity=".35"/>
    <rect x="32" y="58" width="22" height="18" rx="4" fill="#e2e8f0"/>
    <rect x="61" y="58" width="22" height="18" rx="4" fill="#94a3b8"/>
    <rect x="90" y="58" width="12" height="18" rx="4" fill="url(#accent)"/>
    <rect x="32" y="84" width="22" height="18" rx="4" fill="#64748b"/>
    <rect x="61" y="84" width="41" height="18" rx="4" fill="#cbd5e1"/>
    <path d="M32 110H102" stroke="#0f172a" stroke-width="6" stroke-linecap="round" opacity=".38"/>
    <circle cx="97" cy="63" r="2.7" fill="#ffffff" opacity=".78"/>
  </g>
</svg>
